<mxfile host="Electron" modified="2024-04-27T14:16:47.967Z" agent="Mozilla/5.0 (Windows NT 10.0; Win64; x64) AppleWebKit/537.36 (KHTML, like Gecko) draw.io/21.6.8 Chrome/114.0.5735.289 Electron/25.5.0 Safari/537.36" etag="7zM_epEZi2eP_qvVd9JU" version="21.6.8" type="device">
  <diagram name="Page-1" id="iuuxM2fqZh6BfqxOe8Nl">
    <mxGraphModel dx="1278" dy="734" grid="1" gridSize="10" guides="1" tooltips="1" connect="1" arrows="1" fold="1" page="1" pageScale="1" pageWidth="827" pageHeight="1169" math="0" shadow="0">
      <root>
        <mxCell id="0" />
        <mxCell id="1" parent="0" />
        <mxCell id="cR3hgSFsSc1Ssb7ASp3C-1" value="" style="rounded=0;whiteSpace=wrap;html=1;movable=1;resizable=1;rotatable=1;deletable=1;editable=1;locked=0;connectable=1;" vertex="1" parent="1">
          <mxGeometry x="160" y="140" width="560" height="460" as="geometry" />
        </mxCell>
        <mxCell id="cR3hgSFsSc1Ssb7ASp3C-166" value="" style="group" vertex="1" connectable="0" parent="1">
          <mxGeometry x="240" y="180" width="440" height="380" as="geometry" />
        </mxCell>
        <mxCell id="cR3hgSFsSc1Ssb7ASp3C-162" value="" style="rounded=0;whiteSpace=wrap;html=1;glass=0;sketch=0;fillStyle=auto;sketchStyle=rough;fontSize=20;strokeColor=none;strokeWidth=1;fillColor=#EDEDED;gradientColor=none;gradientDirection=north;container=0;movable=1;resizable=1;rotatable=1;deletable=1;editable=1;locked=0;connectable=1;" vertex="1" parent="cR3hgSFsSc1Ssb7ASp3C-166">
          <mxGeometry y="280" width="440" height="100" as="geometry" />
        </mxCell>
        <mxCell id="cR3hgSFsSc1Ssb7ASp3C-161" value="" style="rounded=0;whiteSpace=wrap;html=1;glass=0;sketch=0;fillStyle=auto;sketchStyle=rough;fontSize=20;strokeColor=none;strokeWidth=1;fillColor=#EDEDED;gradientColor=none;gradientDirection=north;container=0;movable=1;resizable=1;rotatable=1;deletable=1;editable=1;locked=0;connectable=1;" vertex="1" parent="cR3hgSFsSc1Ssb7ASp3C-166">
          <mxGeometry y="160" width="440" height="100" as="geometry" />
        </mxCell>
        <mxCell id="cR3hgSFsSc1Ssb7ASp3C-11" value="" style="rounded=0;whiteSpace=wrap;html=1;glass=0;sketch=0;fillStyle=auto;sketchStyle=rough;fontSize=20;strokeColor=none;strokeWidth=1;fillColor=#EDEDED;gradientColor=none;gradientDirection=north;container=0;movable=1;resizable=1;rotatable=1;deletable=1;editable=1;locked=0;connectable=1;" vertex="1" parent="cR3hgSFsSc1Ssb7ASp3C-166">
          <mxGeometry width="440" height="120" as="geometry" />
        </mxCell>
        <mxCell id="cR3hgSFsSc1Ssb7ASp3C-157" value="" style="group" vertex="1" connectable="0" parent="1">
          <mxGeometry x="240" y="360" width="440" height="200" as="geometry" />
        </mxCell>
        <mxCell id="cR3hgSFsSc1Ssb7ASp3C-126" value="" style="rounded=0;whiteSpace=wrap;html=1;fontSize=20;strokeWidth=1;fillColor=#99FFCC;strokeColor=none;gradientColor=none;gradientDirection=north;sketch=1;sketchStyle=rough;fillStyle=dashed;perimeterSpacing=0;labelBackgroundColor=none;disableMultiStroke=0;disableMultiStrokeFill=0;dashOffset=10;dashGap=3;hachureGap=5;fillWeight=1;hachureAngle=-45;curveFitting=-5.05;simplification=1;zigzagOffset=-10;fontStyle=0;container=0;" vertex="1" parent="cR3hgSFsSc1Ssb7ASp3C-157">
          <mxGeometry y="120" width="40" height="80" as="geometry" />
        </mxCell>
        <mxCell id="cR3hgSFsSc1Ssb7ASp3C-105" value="" style="rounded=0;whiteSpace=wrap;html=1;fontSize=20;strokeWidth=1;fillColor=#99FFCC;strokeColor=none;gradientColor=none;gradientDirection=north;sketch=1;sketchStyle=rough;fillStyle=dashed;perimeterSpacing=0;labelBackgroundColor=none;disableMultiStroke=0;disableMultiStrokeFill=0;dashOffset=10;dashGap=3;hachureGap=5;fillWeight=1;hachureAngle=-45;curveFitting=-5.05;simplification=1;zigzagOffset=-10;fontStyle=0;container=0;" vertex="1" parent="cR3hgSFsSc1Ssb7ASp3C-157">
          <mxGeometry x="280" width="160" height="80" as="geometry" />
        </mxCell>
        <mxCell id="cR3hgSFsSc1Ssb7ASp3C-107" value="" style="rounded=0;whiteSpace=wrap;html=1;fontSize=20;strokeWidth=1;fillColor=#99FFCC;strokeColor=none;gradientColor=none;gradientDirection=north;sketch=1;sketchStyle=rough;fillStyle=dashed;perimeterSpacing=0;labelBackgroundColor=none;disableMultiStroke=0;disableMultiStrokeFill=0;dashOffset=10;dashGap=3;hachureGap=5;fillWeight=1;hachureAngle=-45;curveFitting=-5.05;simplification=1;zigzagOffset=-10;fontStyle=0;container=0;" vertex="1" parent="cR3hgSFsSc1Ssb7ASp3C-157">
          <mxGeometry x="120" y="120" width="160" height="80" as="geometry" />
        </mxCell>
        <mxCell id="cR3hgSFsSc1Ssb7ASp3C-104" value="" style="rounded=0;whiteSpace=wrap;html=1;fontSize=20;strokeWidth=1;fillColor=#99FFCC;strokeColor=none;gradientColor=none;gradientDirection=north;sketch=1;sketchStyle=rough;fillStyle=dashed;perimeterSpacing=0;labelBackgroundColor=none;disableMultiStroke=0;disableMultiStrokeFill=0;dashOffset=10;dashGap=3;hachureGap=5;fillWeight=1;hachureAngle=-45;curveFitting=-5.05;simplification=1;zigzagOffset=-10;fontStyle=0;container=0;" vertex="1" parent="cR3hgSFsSc1Ssb7ASp3C-157">
          <mxGeometry x="40" width="160" height="80" as="geometry" />
        </mxCell>
        <mxCell id="cR3hgSFsSc1Ssb7ASp3C-119" value="" style="rounded=0;whiteSpace=wrap;html=1;fontSize=20;strokeWidth=1;fillColor=#99FFCC;strokeColor=none;gradientColor=none;gradientDirection=north;sketch=1;sketchStyle=rough;fillStyle=dashed;perimeterSpacing=0;labelBackgroundColor=none;disableMultiStroke=0;disableMultiStrokeFill=0;dashOffset=10;dashGap=3;hachureGap=5;fillWeight=1;hachureAngle=-45;curveFitting=-5.05;simplification=1;zigzagOffset=-10;fontStyle=0;container=0;" vertex="1" parent="cR3hgSFsSc1Ssb7ASp3C-157">
          <mxGeometry x="360" y="120" width="80" height="80" as="geometry" />
        </mxCell>
        <mxCell id="cR3hgSFsSc1Ssb7ASp3C-154" value="" style="group" vertex="1" connectable="0" parent="1">
          <mxGeometry x="280" y="360" width="400" height="200" as="geometry" />
        </mxCell>
        <mxCell id="cR3hgSFsSc1Ssb7ASp3C-141" value="3" style="rounded=0;whiteSpace=wrap;html=1;fillColor=#E6FFCC;" vertex="1" parent="cR3hgSFsSc1Ssb7ASp3C-154">
          <mxGeometry y="50" width="80" height="30" as="geometry" />
        </mxCell>
        <mxCell id="cR3hgSFsSc1Ssb7ASp3C-142" value="1" style="rounded=0;whiteSpace=wrap;html=1;fillColor=#E6FFCC;" vertex="1" parent="cR3hgSFsSc1Ssb7ASp3C-154">
          <mxGeometry y="10" width="40" height="40" as="geometry" />
        </mxCell>
        <mxCell id="cR3hgSFsSc1Ssb7ASp3C-143" value="2" style="rounded=0;whiteSpace=wrap;html=1;fillColor=#E6FFCC;" vertex="1" parent="cR3hgSFsSc1Ssb7ASp3C-154">
          <mxGeometry x="80" y="30" width="70" height="50" as="geometry" />
        </mxCell>
        <mxCell id="cR3hgSFsSc1Ssb7ASp3C-144" value="2" style="rounded=0;whiteSpace=wrap;html=1;fillColor=#E6FFCC;" vertex="1" parent="cR3hgSFsSc1Ssb7ASp3C-154">
          <mxGeometry x="80" y="130" width="70" height="20" as="geometry" />
        </mxCell>
        <mxCell id="cR3hgSFsSc1Ssb7ASp3C-145" value="7" style="rounded=0;whiteSpace=wrap;html=1;fillColor=#CCFFFF;" vertex="1" parent="cR3hgSFsSc1Ssb7ASp3C-154">
          <mxGeometry x="80" width="60" height="30" as="geometry" />
        </mxCell>
        <mxCell id="cR3hgSFsSc1Ssb7ASp3C-146" value="7" style="rounded=0;whiteSpace=wrap;html=1;fillColor=#CCFFFF;" vertex="1" parent="cR3hgSFsSc1Ssb7ASp3C-154">
          <mxGeometry x="80" y="150" width="60" height="50" as="geometry" />
        </mxCell>
        <mxCell id="cR3hgSFsSc1Ssb7ASp3C-147" value="4" style="rounded=0;whiteSpace=wrap;html=1;fillColor=#E6FFCC;" vertex="1" parent="cR3hgSFsSc1Ssb7ASp3C-154">
          <mxGeometry x="150" y="120" width="60" height="60" as="geometry" />
        </mxCell>
        <mxCell id="cR3hgSFsSc1Ssb7ASp3C-148" value="8" style="rounded=0;whiteSpace=wrap;html=1;fillColor=#CCFFFF;" vertex="1" parent="cR3hgSFsSc1Ssb7ASp3C-154">
          <mxGeometry x="140" y="180" width="80" height="20" as="geometry" />
        </mxCell>
        <mxCell id="cR3hgSFsSc1Ssb7ASp3C-149" value="9" style="rounded=0;whiteSpace=wrap;html=1;fillColor=#CCFFFF;" vertex="1" parent="cR3hgSFsSc1Ssb7ASp3C-154">
          <mxGeometry x="320" y="150" width="40" height="50" as="geometry" />
        </mxCell>
        <mxCell id="cR3hgSFsSc1Ssb7ASp3C-150" value="9" style="rounded=0;whiteSpace=wrap;html=1;fillColor=#CCFFFF;" vertex="1" parent="cR3hgSFsSc1Ssb7ASp3C-154">
          <mxGeometry x="320" y="20" width="40" height="30" as="geometry" />
        </mxCell>
        <mxCell id="cR3hgSFsSc1Ssb7ASp3C-151" value="5" style="rounded=0;whiteSpace=wrap;html=1;fillColor=#E6FFCC;" vertex="1" parent="cR3hgSFsSc1Ssb7ASp3C-154">
          <mxGeometry x="240" y="50" width="100" height="30" as="geometry" />
        </mxCell>
        <mxCell id="cR3hgSFsSc1Ssb7ASp3C-152" value="6" style="rounded=0;whiteSpace=wrap;html=1;fillColor=#E6FFCC;" vertex="1" parent="cR3hgSFsSc1Ssb7ASp3C-154">
          <mxGeometry x="340" y="120" width="60" height="30" as="geometry" />
        </mxCell>
        <mxCell id="cR3hgSFsSc1Ssb7ASp3C-153" value="6" style="rounded=0;whiteSpace=wrap;html=1;fillColor=#E6FFCC;" vertex="1" parent="cR3hgSFsSc1Ssb7ASp3C-154">
          <mxGeometry x="340" y="60" width="60" height="20" as="geometry" />
        </mxCell>
        <mxCell id="cR3hgSFsSc1Ssb7ASp3C-158" value="" style="group" vertex="1" connectable="0" parent="1">
          <mxGeometry x="280" y="185" width="400" height="110" as="geometry" />
        </mxCell>
        <mxCell id="cR3hgSFsSc1Ssb7ASp3C-132" value="1" style="rounded=1;whiteSpace=wrap;html=1;fontStyle=0;fontSize=20;strokeWidth=2;fillColor=#E6FFCC;" vertex="1" parent="cR3hgSFsSc1Ssb7ASp3C-158">
          <mxGeometry width="40" height="30" as="geometry" />
        </mxCell>
        <mxCell id="cR3hgSFsSc1Ssb7ASp3C-133" value="2" style="rounded=1;whiteSpace=wrap;html=1;fontStyle=0;fontSize=20;strokeWidth=2;fillColor=#E6FFCC;" vertex="1" parent="cR3hgSFsSc1Ssb7ASp3C-158">
          <mxGeometry x="80" width="70" height="30" as="geometry" />
        </mxCell>
        <mxCell id="cR3hgSFsSc1Ssb7ASp3C-134" value="3" style="rounded=1;whiteSpace=wrap;html=1;fontStyle=0;fontSize=20;strokeWidth=2;fillColor=#E6FFCC;" vertex="1" parent="cR3hgSFsSc1Ssb7ASp3C-158">
          <mxGeometry y="40" width="80" height="30" as="geometry" />
        </mxCell>
        <mxCell id="cR3hgSFsSc1Ssb7ASp3C-135" value="5" style="rounded=1;whiteSpace=wrap;html=1;fontStyle=0;fontSize=20;strokeWidth=2;fillColor=#E6FFCC;" vertex="1" parent="cR3hgSFsSc1Ssb7ASp3C-158">
          <mxGeometry x="240" y="40" width="100" height="30" as="geometry" />
        </mxCell>
        <mxCell id="cR3hgSFsSc1Ssb7ASp3C-136" value="4" style="rounded=1;whiteSpace=wrap;html=1;fontStyle=0;fontSize=20;strokeWidth=2;fillColor=#E6FFCC;" vertex="1" parent="cR3hgSFsSc1Ssb7ASp3C-158">
          <mxGeometry x="150" y="40" width="60" height="30" as="geometry" />
        </mxCell>
        <mxCell id="cR3hgSFsSc1Ssb7ASp3C-137" value="6" style="rounded=1;whiteSpace=wrap;html=1;fontStyle=0;fontSize=20;strokeWidth=2;fillColor=#E6FFCC;strokeColor=#000000;shadow=0;" vertex="1" parent="cR3hgSFsSc1Ssb7ASp3C-158">
          <mxGeometry x="340" width="60" height="30" as="geometry" />
        </mxCell>
        <mxCell id="cR3hgSFsSc1Ssb7ASp3C-138" value="7" style="rounded=1;whiteSpace=wrap;html=1;fontStyle=0;fontSize=20;strokeWidth=2;fillColor=#CCFFFF;" vertex="1" parent="cR3hgSFsSc1Ssb7ASp3C-158">
          <mxGeometry x="80" y="80" width="60" height="30" as="geometry" />
        </mxCell>
        <mxCell id="cR3hgSFsSc1Ssb7ASp3C-139" value="8" style="rounded=1;whiteSpace=wrap;html=1;fontStyle=0;fontSize=20;strokeWidth=2;fillColor=#CCFFFF;" vertex="1" parent="cR3hgSFsSc1Ssb7ASp3C-158">
          <mxGeometry x="140" y="80" width="80" height="30" as="geometry" />
        </mxCell>
        <mxCell id="cR3hgSFsSc1Ssb7ASp3C-140" value="9" style="rounded=1;whiteSpace=wrap;html=1;fontStyle=0;fontSize=20;strokeWidth=2;fillColor=#CCFFFF;strokeColor=#000000;perimeterSpacing=0;glass=0;shadow=0;" vertex="1" parent="cR3hgSFsSc1Ssb7ASp3C-158">
          <mxGeometry x="320" y="80" width="40" height="30" as="geometry" />
        </mxCell>
        <mxCell id="cR3hgSFsSc1Ssb7ASp3C-167" value="" style="group" vertex="1" connectable="0" parent="1">
          <mxGeometry x="235" y="160" width="445" height="411" as="geometry" />
        </mxCell>
        <mxCell id="cR3hgSFsSc1Ssb7ASp3C-87" value="" style="endArrow=oval;html=1;rounded=0;fontSize=20;targetPerimeterSpacing=0;strokeWidth=2;startArrow=oval;startFill=1;endSize=5;startSize=5;endFill=0;movable=1;resizable=1;rotatable=1;deletable=1;editable=1;locked=0;connectable=1;" edge="1" parent="cR3hgSFsSc1Ssb7ASp3C-167">
          <mxGeometry width="50" height="50" relative="1" as="geometry">
            <mxPoint x="45" y="200" as="sourcePoint" />
            <mxPoint x="205" y="200" as="targetPoint" />
          </mxGeometry>
        </mxCell>
        <mxCell id="cR3hgSFsSc1Ssb7ASp3C-88" value="" style="endArrow=oval;html=1;rounded=0;fontSize=20;targetPerimeterSpacing=0;strokeWidth=2;startArrow=oval;startFill=0;endSize=5;startSize=5;jumpStyle=none;jumpSize=6;dashed=1;dashPattern=1 1;endFill=1;movable=1;resizable=1;rotatable=1;deletable=1;editable=1;locked=0;connectable=1;" edge="1" parent="cR3hgSFsSc1Ssb7ASp3C-167">
          <mxGeometry width="50" height="50" relative="1" as="geometry">
            <mxPoint x="45" y="280" as="sourcePoint" />
            <mxPoint x="45" y="200" as="targetPoint" />
          </mxGeometry>
        </mxCell>
        <mxCell id="cR3hgSFsSc1Ssb7ASp3C-89" value="" style="endArrow=oval;html=1;rounded=0;fontSize=20;targetPerimeterSpacing=0;strokeWidth=2;startArrow=oval;startFill=0;endSize=5;startSize=5;jumpStyle=none;jumpSize=6;dashed=1;dashPattern=1 1;endFill=1;movable=1;resizable=1;rotatable=1;deletable=1;editable=1;locked=0;connectable=1;" edge="1" parent="cR3hgSFsSc1Ssb7ASp3C-167">
          <mxGeometry width="50" height="50" relative="1" as="geometry">
            <mxPoint x="205" y="200" as="sourcePoint" />
            <mxPoint x="205" y="280" as="targetPoint" />
          </mxGeometry>
        </mxCell>
        <mxCell id="cR3hgSFsSc1Ssb7ASp3C-61" value="" style="endArrow=block;html=1;rounded=0;fontSize=20;startSize=5;endSize=14;targetPerimeterSpacing=0;strokeWidth=2;jumpStyle=none;jumpSize=6;fontStyle=0;fontFamily=Verdana;endFill=1;labelBackgroundColor=none;spacingLeft=0;spacing=2;labelPosition=center;verticalLabelPosition=middle;align=center;verticalAlign=middle;entryX=0.5;entryY=1;entryDx=0;entryDy=0;movable=1;resizable=1;rotatable=1;deletable=1;editable=1;locked=0;connectable=1;" edge="1" parent="cR3hgSFsSc1Ssb7ASp3C-167" target="cR3hgSFsSc1Ssb7ASp3C-93">
          <mxGeometry x="0.8179" y="-16" width="50" height="50" relative="1" as="geometry">
            <mxPoint x="5" y="280" as="sourcePoint" />
            <mxPoint x="5" y="170" as="targetPoint" />
            <mxPoint as="offset" />
          </mxGeometry>
        </mxCell>
        <mxCell id="cR3hgSFsSc1Ssb7ASp3C-67" value="" style="endArrow=block;html=1;rounded=0;fontSize=20;startSize=5;endSize=14;targetPerimeterSpacing=0;strokeWidth=2;jumpStyle=none;jumpSize=6;fontStyle=0;fontFamily=Verdana;endFill=1;labelBackgroundColor=none;spacingLeft=0;spacing=2;labelPosition=center;verticalLabelPosition=middle;align=center;verticalAlign=middle;movable=1;resizable=1;rotatable=1;deletable=1;editable=1;locked=0;connectable=1;" edge="1" parent="cR3hgSFsSc1Ssb7ASp3C-167" source="cR3hgSFsSc1Ssb7ASp3C-93">
          <mxGeometry x="0.8179" y="-16" width="50" height="50" relative="1" as="geometry">
            <mxPoint x="15" y="160" as="sourcePoint" />
            <mxPoint x="445" y="160" as="targetPoint" />
            <mxPoint as="offset" />
          </mxGeometry>
        </mxCell>
        <mxCell id="cR3hgSFsSc1Ssb7ASp3C-72" value="" style="endArrow=none;html=1;rounded=0;fontSize=20;startSize=5;endSize=14;targetPerimeterSpacing=0;strokeWidth=2;jumpStyle=none;jumpSize=6;fontStyle=0;fontFamily=Verdana;endFill=0;labelBackgroundColor=none;spacingLeft=0;spacing=2;labelPosition=center;verticalLabelPosition=middle;align=center;verticalAlign=middle;movable=1;resizable=1;rotatable=1;deletable=1;editable=1;locked=0;connectable=1;" edge="1" parent="cR3hgSFsSc1Ssb7ASp3C-167" source="cR3hgSFsSc1Ssb7ASp3C-93">
          <mxGeometry x="0.8179" y="-16" width="50" height="50" relative="1" as="geometry">
            <mxPoint x="5" y="150" as="sourcePoint" />
            <mxPoint x="5" as="targetPoint" />
            <mxPoint as="offset" />
          </mxGeometry>
        </mxCell>
        <mxCell id="cR3hgSFsSc1Ssb7ASp3C-93" value="" style="ellipse;whiteSpace=wrap;html=1;strokeWidth=2;movable=1;resizable=1;rotatable=1;deletable=1;editable=1;locked=0;connectable=1;fillColor=#FFFFFF;" vertex="1" parent="cR3hgSFsSc1Ssb7ASp3C-167">
          <mxGeometry y="155" width="10" height="10" as="geometry" />
        </mxCell>
        <mxCell id="cR3hgSFsSc1Ssb7ASp3C-94" value="" style="endArrow=oval;html=1;rounded=0;fontSize=20;targetPerimeterSpacing=0;strokeWidth=2;startArrow=oval;startFill=0;endSize=5;startSize=5;jumpStyle=none;jumpSize=6;dashed=1;dashPattern=1 1;endFill=1;movable=1;resizable=1;rotatable=1;deletable=1;editable=1;locked=0;connectable=1;" edge="1" parent="cR3hgSFsSc1Ssb7ASp3C-167">
          <mxGeometry width="50" height="50" relative="1" as="geometry">
            <mxPoint x="285" y="280" as="sourcePoint" />
            <mxPoint x="285" y="200" as="targetPoint" />
          </mxGeometry>
        </mxCell>
        <mxCell id="cR3hgSFsSc1Ssb7ASp3C-96" value="" style="endArrow=none;html=1;rounded=0;fontSize=20;targetPerimeterSpacing=0;strokeWidth=2;startArrow=oval;startFill=1;endSize=5;startSize=5;endFill=0;movable=1;resizable=1;rotatable=1;deletable=1;editable=1;locked=0;connectable=1;" edge="1" parent="cR3hgSFsSc1Ssb7ASp3C-167">
          <mxGeometry width="50" height="50" relative="1" as="geometry">
            <mxPoint x="285" y="200.28999999999996" as="sourcePoint" />
            <mxPoint x="445" y="200" as="targetPoint" />
          </mxGeometry>
        </mxCell>
        <mxCell id="cR3hgSFsSc1Ssb7ASp3C-109" value="" style="endArrow=oval;html=1;rounded=0;fontSize=20;targetPerimeterSpacing=0;strokeWidth=2;startArrow=oval;startFill=1;endSize=5;startSize=5;endFill=0;movable=1;resizable=1;rotatable=1;deletable=1;editable=1;locked=0;connectable=1;" edge="1" parent="cR3hgSFsSc1Ssb7ASp3C-167">
          <mxGeometry width="50" height="50" relative="1" as="geometry">
            <mxPoint x="125" y="320" as="sourcePoint" />
            <mxPoint x="285" y="320" as="targetPoint" />
          </mxGeometry>
        </mxCell>
        <mxCell id="cR3hgSFsSc1Ssb7ASp3C-110" value="" style="endArrow=oval;html=1;rounded=0;fontSize=20;targetPerimeterSpacing=0;strokeWidth=2;startArrow=oval;startFill=0;endSize=5;startSize=5;jumpStyle=none;jumpSize=6;dashed=1;dashPattern=1 1;endFill=1;movable=1;resizable=1;rotatable=1;deletable=1;editable=1;locked=0;connectable=1;" edge="1" parent="cR3hgSFsSc1Ssb7ASp3C-167">
          <mxGeometry width="50" height="50" relative="1" as="geometry">
            <mxPoint x="125" y="400" as="sourcePoint" />
            <mxPoint x="125" y="320" as="targetPoint" />
          </mxGeometry>
        </mxCell>
        <mxCell id="cR3hgSFsSc1Ssb7ASp3C-111" value="" style="endArrow=oval;html=1;rounded=0;fontSize=20;targetPerimeterSpacing=0;strokeWidth=2;startArrow=oval;startFill=0;endSize=5;startSize=5;jumpStyle=none;jumpSize=6;dashed=1;dashPattern=1 1;endFill=1;movable=1;resizable=1;rotatable=1;deletable=1;editable=1;locked=0;connectable=1;" edge="1" parent="cR3hgSFsSc1Ssb7ASp3C-167">
          <mxGeometry width="50" height="50" relative="1" as="geometry">
            <mxPoint x="285" y="320" as="sourcePoint" />
            <mxPoint x="285" y="400" as="targetPoint" />
          </mxGeometry>
        </mxCell>
        <mxCell id="cR3hgSFsSc1Ssb7ASp3C-121" value="" style="endArrow=oval;html=1;rounded=0;fontSize=20;targetPerimeterSpacing=0;strokeWidth=2;startArrow=oval;startFill=0;endSize=5;startSize=5;jumpStyle=none;jumpSize=6;dashed=1;dashPattern=1 1;endFill=1;movable=1;resizable=1;rotatable=1;deletable=1;editable=1;locked=0;connectable=1;" edge="1" parent="cR3hgSFsSc1Ssb7ASp3C-167">
          <mxGeometry width="50" height="50" relative="1" as="geometry">
            <mxPoint x="365" y="400" as="sourcePoint" />
            <mxPoint x="365" y="320" as="targetPoint" />
          </mxGeometry>
        </mxCell>
        <mxCell id="cR3hgSFsSc1Ssb7ASp3C-123" value="" style="endArrow=none;html=1;rounded=0;fontSize=20;targetPerimeterSpacing=0;strokeWidth=2;startArrow=oval;startFill=1;endSize=5;startSize=5;endFill=0;movable=1;resizable=1;rotatable=1;deletable=1;editable=1;locked=0;connectable=1;" edge="1" parent="cR3hgSFsSc1Ssb7ASp3C-167">
          <mxGeometry width="50" height="50" relative="1" as="geometry">
            <mxPoint x="365" y="320.28999999999996" as="sourcePoint" />
            <mxPoint x="445" y="320" as="targetPoint" />
          </mxGeometry>
        </mxCell>
        <mxCell id="cR3hgSFsSc1Ssb7ASp3C-124" value="" style="endArrow=oval;html=1;rounded=0;fontSize=20;targetPerimeterSpacing=0;strokeWidth=2;startArrow=none;startFill=0;endSize=5;startSize=5;endFill=0;fontStyle=0" edge="1" parent="cR3hgSFsSc1Ssb7ASp3C-167">
          <mxGeometry width="50" height="50" relative="1" as="geometry">
            <mxPoint x="5" y="320.53" as="sourcePoint" />
            <mxPoint x="45" y="320.53" as="targetPoint" />
          </mxGeometry>
        </mxCell>
        <mxCell id="cR3hgSFsSc1Ssb7ASp3C-125" value="" style="endArrow=oval;html=1;rounded=0;fontSize=20;targetPerimeterSpacing=0;strokeWidth=2;startArrow=oval;startFill=0;endSize=5;startSize=5;jumpStyle=none;jumpSize=6;dashed=1;dashPattern=1 1;endFill=1;movable=1;resizable=1;rotatable=1;deletable=1;editable=1;locked=0;connectable=1;" edge="1" parent="cR3hgSFsSc1Ssb7ASp3C-167">
          <mxGeometry width="50" height="50" relative="1" as="geometry">
            <mxPoint x="45" y="320" as="sourcePoint" />
            <mxPoint x="45" y="400" as="targetPoint" />
          </mxGeometry>
        </mxCell>
        <mxCell id="cR3hgSFsSc1Ssb7ASp3C-74" value="" style="endArrow=none;dashed=1;html=1;strokeWidth=1;rounded=0;fontSize=20;startSize=5;endSize=5;targetPerimeterSpacing=0;jumpStyle=none;jumpSize=6;strokeColor=#808080;fontStyle=0;movable=1;resizable=1;rotatable=1;deletable=1;editable=1;locked=0;connectable=1;" edge="1" parent="cR3hgSFsSc1Ssb7ASp3C-167">
          <mxGeometry width="50" height="50" relative="1" as="geometry">
            <mxPoint x="5" y="60" as="sourcePoint" />
            <mxPoint x="444" y="60.00999999999999" as="targetPoint" />
          </mxGeometry>
        </mxCell>
        <mxCell id="cR3hgSFsSc1Ssb7ASp3C-75" value="" style="endArrow=none;dashed=1;html=1;strokeWidth=1;rounded=0;fontSize=20;startSize=5;endSize=5;targetPerimeterSpacing=0;jumpStyle=none;jumpSize=6;strokeColor=#808080;fontStyle=0;movable=1;resizable=1;rotatable=1;deletable=1;editable=1;locked=0;connectable=1;" edge="1" parent="cR3hgSFsSc1Ssb7ASp3C-167">
          <mxGeometry width="50" height="50" relative="1" as="geometry">
            <mxPoint x="5" y="100" as="sourcePoint" />
            <mxPoint x="444" y="100.00999999999999" as="targetPoint" />
          </mxGeometry>
        </mxCell>
        <mxCell id="cR3hgSFsSc1Ssb7ASp3C-22" value="" style="endArrow=block;html=1;rounded=0;fontSize=20;startSize=5;endSize=14;targetPerimeterSpacing=0;strokeWidth=2;jumpStyle=none;jumpSize=6;fontStyle=0;fontFamily=Verdana;endFill=1;labelBackgroundColor=none;spacingLeft=0;spacing=2;labelPosition=center;verticalLabelPosition=middle;align=center;verticalAlign=middle;movable=1;resizable=1;rotatable=1;deletable=1;editable=1;locked=0;connectable=1;" edge="1" parent="cR3hgSFsSc1Ssb7ASp3C-167">
          <mxGeometry x="0.8179" y="-16" width="50" height="50" relative="1" as="geometry">
            <mxPoint x="10" y="400" as="sourcePoint" />
            <mxPoint x="445" y="400" as="targetPoint" />
            <mxPoint as="offset" />
          </mxGeometry>
        </mxCell>
        <mxCell id="cR3hgSFsSc1Ssb7ASp3C-64" value="" style="endArrow=block;html=1;rounded=0;fontSize=20;startSize=5;endSize=14;targetPerimeterSpacing=0;strokeWidth=2;jumpStyle=none;jumpSize=6;fontStyle=0;fontFamily=Verdana;endFill=1;labelBackgroundColor=none;spacingLeft=0;spacing=2;labelPosition=center;verticalLabelPosition=middle;align=center;verticalAlign=middle;movable=1;resizable=1;rotatable=1;deletable=1;editable=1;locked=0;connectable=1;" edge="1" parent="cR3hgSFsSc1Ssb7ASp3C-167">
          <mxGeometry x="0.8179" y="-16" width="50" height="50" relative="1" as="geometry">
            <mxPoint x="5" y="280" as="sourcePoint" />
            <mxPoint x="445" y="280" as="targetPoint" />
            <mxPoint as="offset" />
          </mxGeometry>
        </mxCell>
        <mxCell id="cR3hgSFsSc1Ssb7ASp3C-165" value="" style="rounded=0;whiteSpace=wrap;html=1;strokeColor=none;" vertex="1" parent="cR3hgSFsSc1Ssb7ASp3C-167">
          <mxGeometry x="5" y="281" width="420" height="10" as="geometry" />
        </mxCell>
        <mxCell id="cR3hgSFsSc1Ssb7ASp3C-163" value="" style="rounded=0;whiteSpace=wrap;html=1;strokeColor=none;" vertex="1" parent="cR3hgSFsSc1Ssb7ASp3C-167">
          <mxGeometry x="5" y="401" width="420" height="10" as="geometry" />
        </mxCell>
        <mxCell id="cR3hgSFsSc1Ssb7ASp3C-62" value="" style="ellipse;whiteSpace=wrap;html=1;strokeWidth=2;movable=1;resizable=1;rotatable=1;deletable=1;editable=1;locked=0;connectable=1;fillColor=#FFFFFF;" vertex="1" parent="cR3hgSFsSc1Ssb7ASp3C-167">
          <mxGeometry y="275" width="10" height="10" as="geometry" />
        </mxCell>
        <mxCell id="cR3hgSFsSc1Ssb7ASp3C-92" value="" style="ellipse;whiteSpace=wrap;html=1;strokeWidth=2;movable=1;resizable=1;rotatable=1;deletable=1;editable=1;locked=0;connectable=1;fillColor=#FFFFFF;" vertex="1" parent="cR3hgSFsSc1Ssb7ASp3C-167">
          <mxGeometry y="395" width="10" height="10" as="geometry" />
        </mxCell>
        <mxCell id="cR3hgSFsSc1Ssb7ASp3C-53" value="" style="endArrow=block;html=1;rounded=0;fontSize=20;startSize=5;endSize=14;targetPerimeterSpacing=0;strokeWidth=2;jumpStyle=none;jumpSize=6;fontStyle=0;fontFamily=Verdana;endFill=1;labelBackgroundColor=none;spacingLeft=0;spacing=2;labelPosition=center;verticalLabelPosition=middle;align=center;verticalAlign=middle;movable=1;resizable=1;rotatable=1;deletable=1;editable=1;locked=0;connectable=1;entryX=0.5;entryY=1;entryDx=0;entryDy=0;" edge="1" parent="cR3hgSFsSc1Ssb7ASp3C-167" source="cR3hgSFsSc1Ssb7ASp3C-92" target="cR3hgSFsSc1Ssb7ASp3C-62">
          <mxGeometry x="0.8179" y="-16" width="50" height="50" relative="1" as="geometry">
            <mxPoint x="5" y="390" as="sourcePoint" />
            <mxPoint x="5" y="290" as="targetPoint" />
            <mxPoint as="offset" />
          </mxGeometry>
        </mxCell>
        <mxCell id="cR3hgSFsSc1Ssb7ASp3C-168" value="" style="group" vertex="1" connectable="0" parent="1">
          <mxGeometry x="170" y="180" width="490" height="410" as="geometry" />
        </mxCell>
        <mxCell id="cR3hgSFsSc1Ssb7ASp3C-23" value="Time" style="text;html=1;strokeColor=none;fillColor=none;align=center;verticalAlign=middle;whiteSpace=wrap;rounded=0;glass=0;sketch=0;fillStyle=auto;sketchStyle=rough;fontFamily=Verdana;fontSize=12;container=0;movable=1;resizable=1;rotatable=1;deletable=1;editable=1;locked=0;connectable=1;" vertex="1" parent="cR3hgSFsSc1Ssb7ASp3C-168">
          <mxGeometry x="450" y="390" width="40" height="20" as="geometry" />
        </mxCell>
        <mxCell id="cR3hgSFsSc1Ssb7ASp3C-55" value="Capacity &amp;amp;&amp;nbsp;Load" style="text;html=1;strokeColor=none;fillColor=none;align=left;verticalAlign=middle;whiteSpace=wrap;rounded=0;glass=0;sketch=0;fillStyle=auto;sketchStyle=rough;fontFamily=Verdana;fontSize=12;container=0;horizontal=0;movable=1;resizable=1;rotatable=1;deletable=1;editable=1;locked=0;connectable=1;" vertex="1" parent="cR3hgSFsSc1Ssb7ASp3C-168">
          <mxGeometry x="40" y="270" width="20" height="100" as="geometry" />
        </mxCell>
        <mxCell id="cR3hgSFsSc1Ssb7ASp3C-68" value="Resource 1" style="text;html=1;strokeColor=none;fillColor=none;align=center;verticalAlign=middle;whiteSpace=wrap;rounded=0;glass=0;sketch=0;fillStyle=auto;sketchStyle=rough;fontFamily=Verdana;fontSize=18;container=0;horizontal=0;movable=1;resizable=1;rotatable=1;deletable=1;editable=1;locked=0;connectable=1;" vertex="1" parent="cR3hgSFsSc1Ssb7ASp3C-168">
          <mxGeometry y="260" width="30" height="120" as="geometry" />
        </mxCell>
        <mxCell id="cR3hgSFsSc1Ssb7ASp3C-69" value="Resource 2" style="text;html=1;strokeColor=none;fillColor=none;align=center;verticalAlign=middle;whiteSpace=wrap;rounded=0;glass=0;sketch=0;fillStyle=auto;sketchStyle=rough;fontFamily=Verdana;fontSize=18;container=0;horizontal=0;movable=1;resizable=1;rotatable=1;deletable=1;editable=1;locked=0;connectable=1;" vertex="1" parent="cR3hgSFsSc1Ssb7ASp3C-168">
          <mxGeometry y="140" width="30" height="120" as="geometry" />
        </mxCell>
        <mxCell id="cR3hgSFsSc1Ssb7ASp3C-71" value="Capacity &amp;amp; Load" style="text;html=1;strokeColor=none;fillColor=none;align=left;verticalAlign=middle;whiteSpace=wrap;rounded=0;glass=0;sketch=0;fillStyle=auto;sketchStyle=rough;fontFamily=Verdana;fontSize=12;container=0;horizontal=0;movable=1;resizable=1;rotatable=1;deletable=1;editable=1;locked=0;connectable=1;" vertex="1" parent="cR3hgSFsSc1Ssb7ASp3C-168">
          <mxGeometry x="40" y="150" width="20" height="100" as="geometry" />
        </mxCell>
        <mxCell id="cR3hgSFsSc1Ssb7ASp3C-77" value="Scheduled Jobs" style="text;html=1;strokeColor=none;fillColor=none;align=center;verticalAlign=middle;whiteSpace=wrap;rounded=0;glass=0;sketch=0;fillStyle=auto;sketchStyle=rough;fontFamily=Verdana;fontSize=18;container=0;horizontal=0;movable=1;resizable=1;rotatable=1;deletable=1;editable=1;locked=0;connectable=1;" vertex="1" parent="cR3hgSFsSc1Ssb7ASp3C-168">
          <mxGeometry width="60" height="120" as="geometry" />
        </mxCell>
      </root>
    </mxGraphModel>
  </diagram>
</mxfile>
